<?xml version="1.0" encoding="UTF-8" standalone="no"?>
<svg
   height="221.65709"
   version="1.1"
   width="255.94817"
   id="svg78"
   sodipodi:docname="marker.svg"
   inkscape:version="1.1.1 (3bf5ae0d25, 2021-09-20)"
   xmlns:inkscape="http://www.inkscape.org/namespaces/inkscape"
   xmlns:sodipodi="http://sodipodi.sourceforge.net/DTD/sodipodi-0.dtd"
   xmlns="http://www.w3.org/2000/svg"
   xmlns:svg="http://www.w3.org/2000/svg">
  <defs
     id="defs82">
    <linearGradient
       id="linearGradient32064"
       inkscape:swatch="solid">
      <stop
         style="stop-color:#000000;stop-opacity:1;"
         offset="0"
         id="stop32062" />
    </linearGradient>
    <linearGradient
       id="linearGradient32042"
       inkscape:swatch="solid">
      <stop
         style="stop-color:#000000;stop-opacity:1;"
         offset="0"
         id="stop32040" />
    </linearGradient>
  </defs>
  <sodipodi:namedview
     id="namedview80"
     pagecolor="#3a3d4c"
     bordercolor="#666666"
     borderopacity="1.0"
     inkscape:pageshadow="2"
     inkscape:pageopacity="0"
     inkscape:pagecheckerboard="0"
     showgrid="false"
     inkscape:zoom="2.0664063"
     inkscape:cx="135.74291"
     inkscape:cy="119.04726"
     inkscape:window-width="1920"
     inkscape:window-height="1028"
     inkscape:window-x="-6"
     inkscape:window-y="-6"
     inkscape:window-maximized="1"
     inkscape:current-layer="strokes"
     fit-margin-top="0"
     fit-margin-left="0"
     fit-margin-right="0"
     fit-margin-bottom="0" />
  <g
     id="View Layer_LineSet"
     inkscape:label="View Layer_LineSet"
     transform="translate(-0.07573146,-20.81104)">
    <g
       id="strokes"
       inkscape:groupmode="layer"
       inkscape:label="strokes">
      <path
         d="M 170.70689,168.58286 C 199.14591,119.32563 227.58371,70.067578 256.0239,20.811041 H 0.07573233 C 42.73365,94.696777 85.391288,168.58272 128.04982,242.46813 l 20.08791,-39.09141 C 120.11279,154.83569 92.086964,106.29518 64.062776,57.753669 H 192.03686 c -14.21962,24.628763 -28.43831,49.258121 -42.65844,73.886561 7.10925,12.31433 14.22033,24.62768 21.32847,36.94263 z"
         fill="none"
         stroke="#000000"
         stroke-linecap="butt"
         stroke-linejoin="miter"
         stroke-opacity="1"
         stroke-width="3"
         id="path2"
         sodipodi:nodetypes="ccccccccc"
         style="fill:#ffa600;fill-opacity:1;stroke:#1a6bff;stroke-width:0;stroke-linecap:butt;stroke-miterlimit:4;stroke-dasharray:none;stroke-opacity:1" />
      <path
         d="m 369.721,41.423 h -33.383 v 173.462 h 33.383 V 99.244 c 16.69175,28.90976 33.38231,57.8202 50.074,86.73 5.56351,-9.63676 11.12834,-19.27275 16.691,-28.91 C 414.23097,118.51702 391.97536,79.970371 369.721,41.423 Z"
         fill="none"
         stroke="#000000"
         stroke-linecap="butt"
         stroke-linejoin="miter"
         stroke-opacity="1"
         stroke-width="3"
         id="path4"
         sodipodi:nodetypes="cccccccc"
         style="fill:#ffffff;fill-opacity:1;stroke:#000000;stroke-width:0;stroke-linecap:butt;stroke-miterlimit:4;stroke-dasharray:none;stroke-opacity:1" />
      <path
         d="m 670.165,41.423 h -33.383 v 115.641 c -5.56351,9.63676 -11.12834,19.27275 -16.691,28.91 H 570.017 V 41.423 h -33.383 v 173.462 c 33.38267,1.6e-4 66.76533,-0.002 100.148,-0.001 11.12763,-19.27336 22.25448,-38.54716 33.383,-57.82 z"
         fill="none"
         stroke="#000000"
         stroke-linecap="butt"
         stroke-linejoin="miter"
         stroke-opacity="1"
         stroke-width="3"
         id="path8"
         sodipodi:nodetypes="ccccccccccc"
         style="fill:#ffffff;fill-opacity:1;stroke:#000000;stroke-width:0;stroke-linecap:butt;stroke-miterlimit:4;stroke-dasharray:none;stroke-opacity:1" />
      <path
         d="m 736.93,99.243 c 22.2548,38.54711 44.51051,77.09371 66.765,115.641 h 33.383 C 803.69538,157.06364 770.31305,99.24311 736.93,41.423 h -33.383 v 173.461 h 33.383 z"
         fill="none"
         stroke="#000000"
         stroke-linecap="butt"
         stroke-linejoin="miter"
         stroke-opacity="1"
         stroke-width="3"
         id="path14"
         sodipodi:nodetypes="cccccccc"
         style="fill:#ffffff;fill-opacity:1;stroke:#000000;stroke-width:0;stroke-linecap:butt;stroke-miterlimit:4;stroke-dasharray:none;stroke-opacity:1" />
      <path
         d="m 987.3,214.884 -0.11931,-28.91 H 903.843 v -28.91 l 34.69598,0.0293 c 0,0 10.13894,-19.86331 15.37802,-28.94035 H 903.843 V 70.333 H 987.3 V 41.423 H 870.46 v 173.461 z"
         fill="none"
         stroke="#000000"
         stroke-linecap="butt"
         stroke-linejoin="miter"
         stroke-opacity="1"
         stroke-width="3"
         id="path24"
         sodipodi:nodetypes="ccccccccccccc"
         style="fill:#ffffff;fill-opacity:1;stroke:#000000;stroke-width:0;stroke-linecap:butt;stroke-miterlimit:4;stroke-dasharray:none;stroke-opacity:1" />
      <path
         d="m 269.574,99.244 v 115.64 h 33.382 V 41.423 c -11.12698,19.27387 -22.25606,38.546528 -33.382,57.821 z"
         fill="none"
         stroke="#000000"
         stroke-linecap="butt"
         stroke-linejoin="miter"
         stroke-opacity="1"
         stroke-width="3"
         id="path44"
         sodipodi:nodetypes="ccccc"
         style="fill:#ffa600;fill-opacity:1;stroke:#000000;stroke-width:0;stroke-linecap:butt;stroke-miterlimit:4;stroke-dasharray:none;stroke-opacity:1" />
      <path
         d="M 503.251,99.244 V 41.423 h -33.382 c -11.12734,19.273856 -22.25507,38.547484 -33.383,57.821 5.56407,9.63662 11.12754,19.2736 16.692,28.91 5.56398,-9.63649 11.12705,-19.2735 16.691,-28.91 v 115.641 h 33.382 V 99.244"
         fill="none"
         stroke="#000000"
         stroke-linecap="butt"
         stroke-linejoin="miter"
         stroke-opacity="1"
         stroke-width="3"
         id="path56"
         sodipodi:nodetypes="ccccccccc"
         style="fill:#ffffff;fill-opacity:1;stroke:#000000;stroke-width:0;stroke-linecap:butt;stroke-miterlimit:4;stroke-dasharray:none;stroke-opacity:1" />
      <path
         d="m 803.695,41.423 0.2865,57.790602 C 814.78531,117.92688 826.27396,138.35085 837.078,157.064 V 41.423 Z"
         fill="none"
         stroke="#000000"
         stroke-linecap="butt"
         stroke-linejoin="miter"
         stroke-opacity="1"
         stroke-width="3"
         id="path70"
         sodipodi:nodetypes="ccccc"
         style="fill:#ffffff;fill-opacity:1;stroke:#000000;stroke-width:0;stroke-linecap:butt;stroke-miterlimit:4;stroke-dasharray:none;stroke-opacity:1" />
      <path
         d="M -187.68156,36.583681 V 210.04468 h 33.383 v -57.82 c 11.1271,19.27347 22.25524,38.54634 33.382,57.82 h 33.383002 C -120.91654,152.22453 -154.29887,94.404004 -187.68156,36.583681 Z"
         fill="none"
         stroke="#000000"
         stroke-linecap="butt"
         stroke-linejoin="miter"
         stroke-opacity="1"
         stroke-width="3"
         id="path42"
         sodipodi:nodetypes="ccccccc"
         style="fill:#9999a1;fill-opacity:1;stroke:#000000;stroke-width:0;stroke-linecap:butt;stroke-miterlimit:4;stroke-dasharray:none;stroke-dashoffset:0;stroke-opacity:1" />
      <path
         style="fill:#ff6600;fill-opacity:0;stroke:#000000;stroke-width:0"
         d="M 64.362947,110.99676 C 29.495651,50.58933 0.89527408,0.95736719 0.80655324,0.70351513 0.70449379,0.41149812 47.424058,0.24196597 128,0.24196597 c 75.68118,0 127.2893,0.17749921 127.19344,0.43746484 C 254.78523,1.7864853 170.82927,146.87219 170.60187,146.86356 c -0.23049,-0.009 -19.5022,-33.18045 -20.50983,-35.30283 -0.31628,-0.66619 4.44333,-9.27198 20.68809,-37.40586 11.60438,-20.097335 21.09888,-36.783021 21.09888,-37.079307 0,-0.39294 -17.36241,-0.538702 -64.16718,-0.538702 H 63.544657 l 1.566667,2.782609 c 2.210456,3.926065 80.699716,139.90182 81.786546,141.68802 l 0.89367,1.46873 -9.64613,18.82454 c -5.30538,10.35349 -9.81292,18.98275 -10.01676,19.17612 -0.20384,0.19337 -28.898407,-49.07268 -63.765703,-109.48012 z"
         id="path980"
         transform="translate(0.07573146,20.81104)" />
      <path
         style="fill:#ff6600;fill-opacity:0;stroke:#000000;stroke-width:0"
         d="M 64.362947,110.99676 C 29.495651,50.58933 0.89527408,0.95736719 0.80655324,0.70351513 0.70449379,0.41149812 47.424058,0.24196597 128,0.24196597 c 75.68118,0 127.2893,0.17749921 127.19344,0.43746484 C 254.78523,1.7864853 170.82927,146.87219 170.60187,146.86356 c -0.23049,-0.009 -19.5022,-33.18045 -20.50983,-35.30283 -0.31628,-0.66619 4.44333,-9.27198 20.68809,-37.40586 11.60438,-20.097335 21.09888,-36.783021 21.09888,-37.079307 0,-0.39294 -17.36241,-0.538702 -64.16718,-0.538702 H 63.544657 l 1.566667,2.782609 c 2.210456,3.926065 80.699716,139.90182 81.786546,141.68802 l 0.89367,1.46873 -9.64613,18.82454 c -5.30538,10.35349 -9.81292,18.98275 -10.01676,19.17612 -0.20384,0.19337 -28.898407,-49.07268 -63.765703,-109.48012 z"
         id="path1019"
         transform="translate(0.07573146,20.81104)" />
      <path
         style="fill:#ff6600;fill-opacity:0;stroke:#000000;stroke-width:0"
         d="M 64.362947,110.99676 C 29.495651,50.58933 0.89527408,0.95736719 0.80655324,0.70351513 0.70449379,0.41149812 47.424058,0.24196597 128,0.24196597 c 75.68118,0 127.2893,0.17749921 127.19344,0.43746484 C 254.78523,1.7864853 170.82927,146.87219 170.60187,146.86356 c -0.23049,-0.009 -19.5022,-33.18045 -20.50983,-35.30283 -0.31628,-0.66619 4.44333,-9.27198 20.68809,-37.40586 11.60438,-20.097335 21.09888,-36.783021 21.09888,-37.079307 0,-0.39294 -17.36241,-0.538702 -64.16718,-0.538702 H 63.544657 l 1.566667,2.782609 c 2.210456,3.926065 80.699716,139.90182 81.786546,141.68802 l 0.89367,1.46873 -9.64613,18.82454 c -5.30538,10.35349 -9.81292,18.98275 -10.01676,19.17612 -0.20384,0.19337 -28.898407,-49.07268 -63.765703,-109.48012 z"
         id="path1058"
         transform="translate(0.07573146,20.81104)" />
      <path
         style="fill:#0000ff;fill-opacity:0;stroke:#000000;stroke-width:0"
         d="M 64.362947,110.99676 C 29.495651,50.58933 0.89527408,0.95736719 0.80655324,0.70351513 0.70449379,0.41149812 47.424058,0.24196597 128,0.24196597 c 75.68118,0 127.2893,0.17749921 127.19344,0.43746484 C 254.78523,1.7864853 170.82927,146.87219 170.60187,146.86356 c -0.23049,-0.009 -19.5022,-33.18045 -20.50983,-35.30283 -0.31628,-0.66619 4.44333,-9.27198 20.68809,-37.40586 11.60438,-20.097335 21.09888,-36.783021 21.09888,-37.079307 0,-0.39294 -17.36241,-0.538702 -64.16718,-0.538702 H 63.544657 l 1.566667,2.782609 c 2.210456,3.926065 80.699716,139.90182 81.786546,141.68802 l 0.89367,1.46873 -9.64613,18.82454 c -5.30538,10.35349 -9.81292,18.98275 -10.01676,19.17612 -0.20384,0.19337 -28.898407,-49.07268 -63.765703,-109.48012 z"
         id="path1097"
         transform="translate(0.07573146,20.81104)" />
      <path
         style="fill:none;fill-opacity:0;stroke:#1a6bff;stroke-width:0;stroke-opacity:1"
         d="M 64.362947,110.99676 C 29.495651,50.58933 0.89527408,0.95736719 0.80655324,0.70351513 0.70449379,0.41149812 47.424058,0.24196597 128,0.24196597 c 75.68118,0 127.2893,0.17749921 127.19344,0.43746484 C 254.78523,1.7864853 170.82927,146.87219 170.60187,146.86356 c -0.23049,-0.009 -19.5022,-33.18045 -20.50983,-35.30283 -0.31628,-0.66619 4.44333,-9.27198 20.68809,-37.40586 11.60438,-20.097335 21.09888,-36.783021 21.09888,-37.079307 0,-0.39294 -17.36241,-0.538702 -64.16718,-0.538702 H 63.544657 l 1.566667,2.782609 c 2.210456,3.926065 80.699716,139.90182 81.786546,141.68802 l 0.89367,1.46873 -9.64613,18.82454 c -5.30538,10.35349 -9.81292,18.98275 -10.01676,19.17612 -0.20384,0.19337 -28.898407,-49.07268 -63.765703,-109.48012 z"
         id="path8952"
         transform="translate(0.07573146,20.81104)" />
      <path
         style="fill:#ff00ff;fill-opacity:0;stroke:#1a6bff;stroke-width:0;stroke-opacity:1"
         d="M 64.362947,110.99676 C 29.495651,50.58933 0.89527408,0.95736719 0.80655324,0.70351513 0.70449379,0.41149812 47.424058,0.24196597 128,0.24196597 c 75.68118,0 127.2893,0.17749921 127.19344,0.43746484 C 254.78523,1.7864853 170.82927,146.87219 170.60187,146.86356 c -0.23049,-0.009 -19.5022,-33.18045 -20.50983,-35.30283 -0.31628,-0.66619 4.44333,-9.27198 20.68809,-37.40586 11.60438,-20.097335 21.09888,-36.783021 21.09888,-37.079307 0,-0.39294 -17.36241,-0.538702 -64.16718,-0.538702 H 63.544657 l 1.566667,2.782609 c 2.210456,3.926065 80.699716,139.90182 81.786546,141.68802 l 0.89367,1.46873 -9.64613,18.82454 c -5.30538,10.35349 -9.81292,18.98275 -10.01676,19.17612 -0.20384,0.19337 -28.898407,-49.07268 -63.765703,-109.48012 z"
         id="path9108"
         transform="translate(0.07573146,20.81104)" />
      <path
         style="fill:#ffffff;fill-opacity:0;stroke:#1a6bff;stroke-width:0;stroke-opacity:1"
         d="M 64.362947,110.97131 C 29.495651,50.557124 0.89527408,0.92812391 0.80655324,0.68464851 0.70929318,0.41773919 51.21321,0.24196597 128,0.24196597 c 71.03669,0 127.28342,0.18432648 127.19344,0.41682635 C 254.75831,1.783175 170.79494,146.86958 170.58601,146.85812 c -0.21334,-0.0117 -19.45447,-33.16231 -20.48775,-35.29838 -0.30571,-0.63201 4.81143,-9.87017 20.94269,-37.808639 l 21.34726,-36.972274 -64.21249,-0.122762 c -35.316871,-0.06752 -64.289934,-0.04532 -64.384582,0.04933 -0.09465,0.09465 15.909998,28.024372 35.565886,62.066051 19.655886,34.041674 38.582166,66.822064 42.058396,72.845304 l 6.32041,10.95134 -9.65706,18.81047 c -5.31138,10.34576 -9.80639,18.95138 -9.9889,19.1236 -0.18251,0.17223 -28.859627,-49.11665 -63.726923,-109.53085 z"
         id="path13121"
         transform="translate(0.07573146,20.81104)" />
      <path
         style="fill:#ffffff;fill-opacity:0;stroke:#1a6bff;stroke-width:0;stroke-opacity:1"
         d="M 64.362947,110.97131 C 29.495651,50.557124 0.89527408,0.92812391 0.80655324,0.68464851 0.70929318,0.41773919 51.21321,0.24196597 128,0.24196597 c 71.03669,0 127.28342,0.18432648 127.19344,0.41682635 C 254.75831,1.783175 170.79494,146.86958 170.58601,146.85812 c -0.21334,-0.0117 -19.45447,-33.16231 -20.48775,-35.29838 -0.30571,-0.63201 4.81143,-9.87017 20.94269,-37.808639 l 21.34726,-36.972274 -64.21249,-0.122762 c -35.316871,-0.06752 -64.289934,-0.04532 -64.384582,0.04933 -0.09465,0.09465 15.909998,28.024372 35.565886,62.066051 19.655886,34.041674 38.582166,66.822064 42.058396,72.845304 l 6.32041,10.95134 -9.65706,18.81047 c -5.31138,10.34576 -9.80639,18.95138 -9.9889,19.1236 -0.18251,0.17223 -28.859627,-49.11665 -63.726923,-109.53085 z"
         id="path13160"
         transform="translate(0.07573146,20.81104)" />
      <path
         style="fill:#ffffff;fill-opacity:0;stroke:#1a6bff;stroke-width:0;stroke-opacity:1"
         d="M 64.362947,110.97131 C 29.495651,50.557124 0.89527408,0.92812391 0.80655324,0.68464851 0.70929318,0.41773919 51.21321,0.24196597 128,0.24196597 c 71.03669,0 127.28342,0.18432648 127.19344,0.41682635 C 254.75831,1.783175 170.79494,146.86958 170.58601,146.85812 c -0.21334,-0.0117 -19.45447,-33.16231 -20.48775,-35.29838 -0.30571,-0.63201 4.81143,-9.87017 20.94269,-37.808639 l 21.34726,-36.972274 -64.21249,-0.122762 c -35.316871,-0.06752 -64.289934,-0.04532 -64.384582,0.04933 -0.09465,0.09465 15.909998,28.024372 35.565886,62.066051 19.655886,34.041674 38.582166,66.822064 42.058396,72.845304 l 6.32041,10.95134 -9.65706,18.81047 c -5.31138,10.34576 -9.80639,18.95138 -9.9889,19.1236 -0.18251,0.17223 -28.859627,-49.11665 -63.726923,-109.53085 z"
         id="path13199"
         transform="translate(0.07573146,20.81104)" />
      <path
         style="fill:#ffffff;fill-opacity:0;stroke:#1a6bff;stroke-width:0;stroke-opacity:1"
         d="M 64.362947,110.97131 C 29.495651,50.557124 0.89527408,0.92812391 0.80655324,0.68464851 0.70929318,0.41773919 51.21321,0.24196597 128,0.24196597 c 71.03669,0 127.28342,0.18432648 127.19344,0.41682635 C 254.75831,1.783175 170.79494,146.86958 170.58601,146.85812 c -0.21334,-0.0117 -19.45447,-33.16231 -20.48775,-35.29838 -0.30571,-0.63201 4.81143,-9.87017 20.94269,-37.808639 l 21.34726,-36.972274 -64.21249,-0.122762 c -35.316871,-0.06752 -64.289934,-0.04532 -64.384582,0.04933 -0.09465,0.09465 15.909998,28.024372 35.565886,62.066051 19.655886,34.041674 38.582166,66.822064 42.058396,72.845304 l 6.32041,10.95134 -9.65706,18.81047 c -5.31138,10.34576 -9.80639,18.95138 -9.9889,19.1236 -0.18251,0.17223 -28.859627,-49.11665 -63.726923,-109.53085 z"
         id="path13238"
         transform="translate(0.07573146,20.81104)" />
      <path
         style="fill:#ffffff;fill-opacity:0;stroke:#1a6bff;stroke-width:0;stroke-opacity:1"
         d="M 64.362947,110.97131 C 29.495651,50.557124 0.89527408,0.92812391 0.80655324,0.68464851 0.70929318,0.41773919 51.21321,0.24196597 128,0.24196597 c 71.03669,0 127.28342,0.18432648 127.19344,0.41682635 C 254.75831,1.783175 170.79494,146.86958 170.58601,146.85812 c -0.21334,-0.0117 -19.45447,-33.16231 -20.48775,-35.29838 -0.30571,-0.63201 4.81143,-9.87017 20.94269,-37.808639 l 21.34726,-36.972274 -64.21249,-0.122762 c -35.316871,-0.06752 -64.289934,-0.04532 -64.384582,0.04933 -0.09465,0.09465 15.909998,28.024372 35.565886,62.066051 19.655886,34.041674 38.582166,66.822064 42.058396,72.845304 l 6.32041,10.95134 -9.65706,18.81047 c -5.31138,10.34576 -9.80639,18.95138 -9.9889,19.1236 -0.18251,0.17223 -28.859627,-49.11665 -63.726923,-109.53085 z"
         id="path13277"
         transform="translate(0.07573146,20.81104)" />
      <path
         style="fill:#ffffff;fill-opacity:0;stroke:#1a6bff;stroke-width:0;stroke-opacity:1"
         d="M 64.362947,110.97131 C 29.495651,50.557124 0.89527408,0.92812391 0.80655324,0.68464851 0.70929318,0.41773919 51.21321,0.24196597 128,0.24196597 c 71.03669,0 127.28342,0.18432648 127.19344,0.41682635 C 254.75831,1.783175 170.79494,146.86958 170.58601,146.85812 c -0.21334,-0.0117 -19.45447,-33.16231 -20.48775,-35.29838 -0.30571,-0.63201 4.81143,-9.87017 20.94269,-37.808639 l 21.34726,-36.972274 -64.21249,-0.122762 c -35.316871,-0.06752 -64.289934,-0.04532 -64.384582,0.04933 -0.09465,0.09465 15.909998,28.024372 35.565886,62.066051 19.655886,34.041674 38.582166,66.822064 42.058396,72.845304 l 6.32041,10.95134 -9.65706,18.81047 c -5.31138,10.34576 -9.80639,18.95138 -9.9889,19.1236 -0.18251,0.17223 -28.859627,-49.11665 -63.726923,-109.53085 z"
         id="path13316"
         transform="translate(0.07573146,20.81104)" />
      <path
         style="fill:#ffffff;fill-opacity:0;stroke:#1a6bff;stroke-width:0;stroke-opacity:1"
         d="M 64.362947,110.97131 C 29.495651,50.557124 0.89527408,0.92812391 0.80655324,0.68464851 0.70929318,0.41773919 51.21321,0.24196597 128,0.24196597 c 71.03669,0 127.28342,0.18432648 127.19344,0.41682635 C 254.75831,1.783175 170.79494,146.86958 170.58601,146.85812 c -0.21334,-0.0117 -19.45447,-33.16231 -20.48775,-35.29838 -0.30571,-0.63201 4.81143,-9.87017 20.94269,-37.808639 l 21.34726,-36.972274 -64.21249,-0.122762 c -35.316871,-0.06752 -64.289934,-0.04532 -64.384582,0.04933 -0.09465,0.09465 15.909998,28.024372 35.565886,62.066051 19.655886,34.041674 38.582166,66.822064 42.058396,72.845304 l 6.32041,10.95134 -9.65706,18.81047 c -5.31138,10.34576 -9.80639,18.95138 -9.9889,19.1236 -0.18251,0.17223 -28.859627,-49.11665 -63.726923,-109.53085 z"
         id="path13355"
         transform="translate(0.07573146,20.81104)" />
      <path
         style="fill:#ffffff;fill-opacity:0;stroke:#1a6bff;stroke-width:0;stroke-opacity:1"
         d="M 64.362947,110.97131 C 29.495651,50.557124 0.89527408,0.92812391 0.80655324,0.68464851 0.70929318,0.41773919 51.21321,0.24196597 128,0.24196597 c 71.03669,0 127.28342,0.18432648 127.19344,0.41682635 C 254.75831,1.783175 170.79494,146.86958 170.58601,146.85812 c -0.21334,-0.0117 -19.45447,-33.16231 -20.48775,-35.29838 -0.30571,-0.63201 4.81143,-9.87017 20.94269,-37.808639 l 21.34726,-36.972274 -64.21249,-0.122762 c -35.316871,-0.06752 -64.289934,-0.04532 -64.384582,0.04933 -0.09465,0.09465 15.909998,28.024372 35.565886,62.066051 19.655886,34.041674 38.582166,66.822064 42.058396,72.845304 l 6.32041,10.95134 -9.65706,18.81047 c -5.31138,10.34576 -9.80639,18.95138 -9.9889,19.1236 -0.18251,0.17223 -28.859627,-49.11665 -63.726923,-109.53085 z"
         id="path13394"
         transform="translate(0.07573146,20.81104)" />
      <path
         style="fill:#ffffff;fill-opacity:0;stroke:#1a6bff;stroke-width:0;stroke-opacity:1"
         d="M 64.362947,110.97131 C 29.495651,50.557124 0.89527408,0.92812391 0.80655324,0.68464851 0.70929318,0.41773919 51.21321,0.24196597 128,0.24196597 c 71.03669,0 127.28342,0.18432648 127.19344,0.41682635 C 254.75831,1.783175 170.79494,146.86958 170.58601,146.85812 c -0.21334,-0.0117 -19.45447,-33.16231 -20.48775,-35.29838 -0.30571,-0.63201 4.81143,-9.87017 20.94269,-37.808639 l 21.34726,-36.972274 -64.21249,-0.122762 c -35.316871,-0.06752 -64.289934,-0.04532 -64.384582,0.04933 -0.09465,0.09465 15.909998,28.024372 35.565886,62.066051 19.655886,34.041674 38.582166,66.822064 42.058396,72.845304 l 6.32041,10.95134 -9.65706,18.81047 c -5.31138,10.34576 -9.80639,18.95138 -9.9889,19.1236 -0.18251,0.17223 -28.859627,-49.11665 -63.726923,-109.53085 z"
         id="path13433"
         transform="translate(0.07573146,20.81104)" />
      <path
         style="fill:#000000;fill-opacity:0;stroke:#1a6bff;stroke-width:0;stroke-opacity:1;opacity:1"
         d="M 64.362947,110.97131 C 29.495651,50.557124 0.89527408,0.92812391 0.80655324,0.68464851 0.70929318,0.41773919 51.21321,0.24196597 128,0.24196597 c 71.03669,0 127.28342,0.18432648 127.19344,0.41682635 C 254.75831,1.783175 170.79494,146.86958 170.58601,146.85812 c -0.21334,-0.0117 -19.45447,-33.16231 -20.48775,-35.29838 -0.30571,-0.63201 4.81143,-9.87017 20.94269,-37.808639 l 21.34726,-36.972274 -64.21249,-0.122762 c -35.316871,-0.06752 -64.289934,-0.04532 -64.384582,0.04933 -0.09465,0.09465 15.909998,28.024372 35.565886,62.066051 19.655886,34.041674 38.582166,66.822064 42.058396,72.845304 l 6.32041,10.95134 -9.65706,18.81047 c -5.31138,10.34576 -9.80639,18.95138 -9.9889,19.1236 -0.18251,0.17223 -28.859627,-49.11665 -63.726923,-109.53085 z"
         id="path13472"
         transform="translate(0.07573146,20.81104)" />
    </g>
  </g>
</svg>
