<?xml version="1.0" encoding="UTF-8" standalone="no"?>
<svg
   height="256"
   version="1.1"
   width="1024"
   id="svg78"
   sodipodi:docname="name-white.svg"
   inkscape:version="1.1.1 (3bf5ae0d25, 2021-09-20)"
   xmlns:inkscape="http://www.inkscape.org/namespaces/inkscape"
   xmlns:sodipodi="http://sodipodi.sourceforge.net/DTD/sodipodi-0.dtd"
   xmlns="http://www.w3.org/2000/svg"
   xmlns:svg="http://www.w3.org/2000/svg">
  <defs
     id="defs82" />
  <sodipodi:namedview
     id="namedview80"
     pagecolor="#3a3d4c"
     bordercolor="#666666"
     borderopacity="1.0"
     inkscape:pageshadow="2"
     inkscape:pageopacity="0"
     inkscape:pagecheckerboard="0"
     showgrid="false"
     inkscape:zoom="0.73058494"
     inkscape:cx="430.47698"
     inkscape:cy="307.9724"
     inkscape:window-width="1920"
     inkscape:window-height="1028"
     inkscape:window-x="-6"
     inkscape:window-y="-6"
     inkscape:window-maximized="1"
     inkscape:current-layer="strokes" />
  <g
     id="View Layer_LineSet"
     inkscape:groupmode="lineset"
     inkscape:label="View Layer_LineSet">
    <g
       id="strokes"
       inkscape:groupmode="layer"
       inkscape:label="strokes">
      <path
         d="M 202.808,157.064 C 225.06338,118.51703 247.31768,79.969427 269.574,41.423 H 69.278 c 33.38262,57.820358 66.76495,115.64089 100.148,173.461 l 15.72012,-30.59156 C 163.21477,146.30595 141.28272,108.31986 119.352,70.333 H 219.5 c -11.12779,19.273593 -22.25478,38.54765 -33.383,57.821 5.56351,9.63676 11.12834,19.27275 16.691,28.91 z"
         fill="none"
         stroke="#000000"
         stroke-linecap="butt"
         stroke-linejoin="miter"
         stroke-opacity="1"
         stroke-width="3"
         id="path2"
         sodipodi:nodetypes="ccccccccc"
         style="stroke-width:0.03;vector-effect:non-scaling-stroke;-inkscape-stroke:hairline;stroke-miterlimit:4;stroke-dasharray:none;stroke:#000000;stroke-opacity:0;fill:#ffffff;fill-opacity:1" />
      <path
         d="m 369.721,41.423 h -33.383 v 173.462 h 33.383 V 99.244 c 16.69175,28.90976 33.38231,57.8202 50.074,86.73 5.56351,-9.63676 11.12834,-19.27275 16.691,-28.91 C 414.23097,118.51702 391.97536,79.970371 369.721,41.423 Z"
         fill="none"
         stroke="#000000"
         stroke-linecap="butt"
         stroke-linejoin="miter"
         stroke-opacity="1"
         stroke-width="3"
         id="path4"
         sodipodi:nodetypes="cccccccc"
         style="stroke-width:0.03;vector-effect:non-scaling-stroke;-inkscape-stroke:hairline;stroke-miterlimit:4;stroke-dasharray:none;stroke:#000000;stroke-opacity:0;fill:#ffffff;fill-opacity:1" />
      <path
         d="m 670.165,41.423 -33.383,0 0,115.641 c -5.56351,9.63676 -11.12834,19.27275 -16.691,28.91 H 570.017 V 41.423 h -33.383 v 173.462 c 33.38267,1.6e-4 66.76533,-0.002 100.148,-0.001 11.12763,-19.27336 22.25448,-38.54716 33.383,-57.82 z"
         fill="none"
         stroke="#000000"
         stroke-linecap="butt"
         stroke-linejoin="miter"
         stroke-opacity="1"
         stroke-width="3"
         id="path8"
         sodipodi:nodetypes="ccccccccccc"
         style="stroke-width:0.03;vector-effect:non-scaling-stroke;-inkscape-stroke:hairline;stroke-miterlimit:4;stroke-dasharray:none;stroke:#000000;stroke-opacity:0;fill:#ffffff;fill-opacity:1" />
      <path
         d="m 736.93,99.243 c 22.2548,38.54711 44.51051,77.09371 66.765,115.641 h 33.383 C 803.69538,157.06364 770.31305,99.24311 736.93,41.423 h -33.383 l 0,173.461 33.383,0 z"
         fill="none"
         stroke="#000000"
         stroke-linecap="butt"
         stroke-linejoin="miter"
         stroke-opacity="1"
         stroke-width="3"
         id="path14"
         sodipodi:nodetypes="cccccccc"
         style="stroke-width:0.03;vector-effect:non-scaling-stroke;-inkscape-stroke:hairline;stroke-miterlimit:4;stroke-dasharray:none;stroke:#000000;stroke-opacity:0;fill:#ffffff;fill-opacity:1" />
      <path
         d="m 987.3,214.884 -0.11931,-28.91 H 903.843 v -28.91 l 34.69598,0.0293 c 0,0 10.13894,-19.86331 15.37802,-28.94035 H 903.843 V 70.333 H 987.3 V 41.423 H 870.46 v 173.461 z"
         fill="none"
         stroke="#000000"
         stroke-linecap="butt"
         stroke-linejoin="miter"
         stroke-opacity="1"
         stroke-width="3"
         id="path24"
         sodipodi:nodetypes="ccccccccccccc"
         style="stroke-width:0.03;vector-effect:non-scaling-stroke;-inkscape-stroke:hairline;stroke-miterlimit:4;stroke-dasharray:none;stroke:#000000;stroke-opacity:0;fill:#ffffff;fill-opacity:1" />
      <path
         d="m 35.895,41.423 v 173.461 l 33.383,0 v -57.82 c 11.127095,19.27347 22.255238,38.54634 33.382,57.82 h 33.383 C 102.66002,157.06385 69.277684,99.243323 35.895,41.423 Z"
         fill="none"
         stroke="#000000"
         stroke-linecap="butt"
         stroke-linejoin="miter"
         stroke-opacity="1"
         stroke-width="3"
         id="path42"
         sodipodi:nodetypes="ccccccc"
         style="stroke-linecap:butt;stroke-width:0.0001;stroke-miterlimit:4;stroke-dasharray:none;stroke-dashoffset:0;vector-effect:non-scaling-stroke;-inkscape-stroke:hairline;fill:#9999a1;fill-opacity:1;stroke:#000000;stroke-opacity:0" />
      <path
         d="m 269.574,99.244 v 115.64 h 33.382 V 41.423 c -11.12698,19.27387 -22.25606,38.546528 -33.382,57.821 z"
         fill="none"
         stroke="#000000"
         stroke-linecap="butt"
         stroke-linejoin="miter"
         stroke-opacity="1"
         stroke-width="3"
         id="path44"
         sodipodi:nodetypes="ccccc"
         style="stroke-width:0.03;vector-effect:non-scaling-stroke;-inkscape-stroke:hairline;stroke-miterlimit:4;stroke-dasharray:none;stroke:#000000;stroke-opacity:0;fill:#ffa600;fill-opacity:1" />
      <path
         d="M 503.251,99.244 V 41.423 h -33.382 c -11.12734,19.273856 -22.25507,38.547484 -33.383,57.821 5.56407,9.63662 11.12754,19.2736 16.692,28.91 5.56398,-9.63649 11.12705,-19.2735 16.691,-28.91 v 115.641 h 33.382 V 99.244"
         fill="none"
         stroke="#000000"
         stroke-linecap="butt"
         stroke-linejoin="miter"
         stroke-opacity="1"
         stroke-width="3"
         id="path56"
         sodipodi:nodetypes="ccccccccc"
         style="stroke-width:0.03;vector-effect:non-scaling-stroke;-inkscape-stroke:hairline;stroke-miterlimit:4;stroke-dasharray:none;stroke:#000000;stroke-opacity:0;fill:#ffffff;fill-opacity:1" />
      <path
         d="m 803.695,41.423 0.2865,57.790602 C 814.78531,117.92688 826.27396,138.35085 837.078,157.064 V 41.423 Z"
         fill="none"
         stroke="#000000"
         stroke-linecap="butt"
         stroke-linejoin="miter"
         stroke-opacity="1"
         stroke-width="3"
         id="path70"
         sodipodi:nodetypes="ccccc"
         style="stroke-width:0.03;vector-effect:non-scaling-stroke;-inkscape-stroke:hairline;stroke-miterlimit:4;stroke-dasharray:none;stroke:#000000;stroke-opacity:0;fill:#ffffff;fill-opacity:1" />
    </g>
  </g>
</svg>
